<svg xmlns="http://www.w3.org/2000/svg" data-name="Layer 1" viewBox="0 0 100 125" x="0px" y="0px"><title>Artboard 5</title>
<path 
fill="#1890ff"
d="M50,3A47,47,0,1,0,97,50,47,47,0,0,0,50,3Zm-.64,77.92a5.38,5.38,0,1,1,5.38-5.38A5.39,5.39,0,0,1,49.36,80.92Zm5.88-26.12s-.53.19-.53.5v4.27a5.35,5.35,0,1,1-10.71,0V55.3a11.32,11.32,0,0,1,7.81-10.65A7.6,7.6,0,0,0,57,37.19a7.81,7.81,0,0,0-7.69-7.4,7.58,7.58,0,0,0-6.81,4.32,5.35,5.35,0,0,1-9.65-4.65A18.23,18.23,0,0,1,49.22,19.08h.11A18.48,18.48,0,0,1,67.69,36.87,18.25,18.25,0,0,1,55.25,54.79Z"/></svg>