<?xml version="1.0" encoding="utf-8"?>
<!-- Generator: Adobe Illustrator 23.1.0, SVG Export Plug-In . SVG Version: 6.00 Build 0)  -->
<svg version="1.1" id="Layer_1" xmlns="http://www.w3.org/2000/svg" xmlns:xlink="http://www.w3.org/1999/xlink" x="0px" y="0px"
	 viewBox="0 0 1120 360" enable-background="new 0 0 1120 360" xml:space="preserve">
<g>
	<g id="XMLID_107_">
		<g>
			<path fill="#C63450" d="M291.464,171.3743c0.7955,10.3264-6.4713,19.4918-16.225,20.4678
				c-5.752,0.5751-11.0805-1.8274-14.6502-6.01c-2.1754-2.5488-5.4042-3.9467-8.7423-3.6535l-0.939,0.0825
				c-1.23,0.1081-2.4301,0.4382-3.5423,0.9745l-0.1094,0.0528c-4.2534,2.0508-7.4462,5.8895-8.4438,10.5049
				c-0.4684,2.1671-1.0556,4.2901-1.7537,6.3631c-1.0415,3.0926-0.6651,6.4867,0.9271,9.3352l0.1077,0.1927
				c0.5089,0.9104,1.2254,1.6879,2.0913,2.2692l2.7797,1.8662c1.3728,0.9216,3.0468,1.3866,4.6741,1.0932
				c2.9341-0.5289,6.0688,0.0353,8.7414,1.8289c6.0964,4.094,7.2003,12.8489,1.7379,18.3528
				c-3.3947,3.4205-8.7081,4.406-13.1136,2.4528c-3.2999-1.463-5.5315-4.1177-6.5419-7.1459
				c-0.4716-1.4133-1.3086-2.6759-2.5458-3.5061l-3.9749-2.667c-0.8649-0.5803-1.8544-0.9486-2.8882-1.0751h0
				c-3.3146-0.4055-6.6815,0.5524-9.1933,2.7528c-1.8695,1.6378-3.8427,3.1603-5.9076,4.5565
				c-4.9697,3.3603-8.1806,8.7577-8.5574,14.7449v0c-0.0896,1.4233,0.0421,2.8519,0.3903,4.2348l0.8111,3.2212
				c0.818,3.2489,2.7212,6.1922,5.5464,7.993c3.07,1.9568,5.4277,5.0444,6.3866,8.8517
				c2.0271,8.0585-2.9803,16.2325-11.1425,18.0476c-7.364,1.6395-14.9159-2.6553-17.2543-9.83
				c-1.3002-4.0006-0.8174-8.0974,0.9684-11.4902c1.5255-2.8983,2.1045-6.1998,1.3057-9.3762l-0.9572-3.8063
				c-0.3482-1.3846-0.9092-2.7066-1.6629-3.9191l-3.3054-5.3168c-1.2317-1.9812-3.3989-3.1861-5.7318-3.1867l0,0
				c-2.0438-0.0005-4.0645-0.1063-6.0566-0.3104c-6.0164-0.6166-11.9812,1.5291-16.1423,5.918l0,0
				c-0.9096,0.9594-1.6651,2.054-2.2395,3.2449l-3.6579,7.5831c-1.1154,2.3124-1.6229,4.9258-1.1336,7.4461
				c0.4716,2.4291,0.1929,5.0255-0.963,7.4273c-2.9687,6.1498-10.5358,8.5919-16.5818,5.1904
				c-5.1759-2.9188-7.4153-9.3586-5.1593-14.8593c1.077-2.6259,2.9625-4.6417,5.2343-5.9023
				c2.4138-1.3393,4.2334-3.5426,5.4323-6.0291l3.5115-7.2828c0.5735-1.1895,0.9595-2.4607,1.1442-3.7683l1.0404-7.3651
				c0.2394-1.7225-0.4185-3.4587-1.771-4.5503c-5.3333-4.3302-9.9043-9.5576-13.4787-15.4566
				c-0.8879-1.4657-2.484-2.3545-4.1975-2.3684l-6.9619-0.0691c-1.5657-0.0155-3.124,0.2156-4.6177,0.6849l-0.5792,0.182
				c-4.0116,1.2605-7.1711,4.2206-9.0675,7.9736c-1.9534,3.8659-5.4019,6.9692-9.8602,8.3693
				c-9.3638,2.9441-19.3816-2.8101-21.3387-12.7154c-1.5072-7.6285,2.6886-15.4856,9.8582-18.4961
				c4.709-1.9773,9.708-1.6412,13.8537,0.4076c3.3686,1.6648,7.2697,1.8848,10.8543,0.7581l1.8453-0.58
				c1.4942-0.4697,2.9051-1.1718,4.1807-2.0806l5.9897-4.2673c1.1771-0.8339,1.8043-2.2316,1.6874-3.6656
				c-0.1304-1.5918-0.1976-3.1971-0.1972-4.8204c0.002-7.7594,1.5046-15.1729,4.2252-21.9704
				c1.2126-3.0296,1.0373-6.4371-0.3958-9.3688v0c-0.5287-1.0815-1.3048-2.0231-2.2655-2.7486l-2.2118-1.6702
				c-1.4905-1.1255-3.3429-1.6925-5.2021-1.5143c-2.8589,0.274-5.8216-0.4789-8.2943-2.3449
				c-5.8748-4.4377-6.4804-13.2659-0.6864-18.4527c3.5901-3.2138,8.9525-3.8844,13.2332-1.6725
				c3.1945,1.6506,5.2648,4.414,6.1007,7.4832c0.3747,1.3759,1.7263,3.1702,2.8644,4.0294
				c1.3413,1.0126,2.7252,2.0574,2.7252,2.0574c1.3475,1.0172,2.4596,1.5003,3.6462,1.7122l1.6969,0.3029
				c2.2109,0.3947,4.4777-0.2074,6.2096-1.6372c2.8833-2.3804,5.9948-4.4939,9.2955-6.3029
				c3.7491-2.0548,6.3934-5.6625,7.0889-9.8808l0.082-0.4973c0.2897-1.7572,0.2597-3.4261-0.0672-5.054l-0.2856-1.4216
				c-0.7397-3.6824-3.1178-6.7386-6.3182-8.7044c-3.8248-2.3493-6.683-6.0858-7.6545-10.6338
				c-1.9186-8.9964,4.2658-17.7563,13.8168-19.562c9.5465-1.8058,18.8431,4.0181,20.7617,13.0145
				c1.0193,4.7766-0.2447,9.4845-3.0848,13.1206c-2.4989,3.1993-3.5423,7.2964-2.742,11.2763v0
				c0.3269,1.6258,0.9455,3.1789,1.8258,4.5843l3.5502,5.6677c0.32,0.5096,0.8791,0.8164,1.4788,0.8166h0.009
				c11.1829,0.0029,21.6526,3.1169,30.593,8.5213c0.4914,0.2932,1.0957,0.334,1.6143,0.0906l5.5281-2.5602
				c1.4001-0.6484,2.6596-1.5649,3.7072-2.6977l4.0209-4.3477c1.7309-1.8716,2.9756-4.2024,3.2542-6.7365
				c0.2684-2.4415,1.2917-4.822,3.0882-6.7626c4.7706-5.1532,13.0341-5.1359,17.7672,0.3254
				c3.5486,4.0945,3.8256,10.29,0.6527,14.682c-1.8361,2.5415-4.4187,4.1169-7.1797,4.7075
				c-2.4192,0.5175-4.6788,1.6055-6.3586,3.4217l-3.8897,4.2057c-1.5592,1.6859-2.3671,3.0038-2.9044,4.4483v0
				c-1.4428,3.8789-1.0034,8.1854,1.1187,11.7385c1.3702,2.2941,2.5897,4.6881,3.6445,7.1684
				c1.8522,4.3551,5.466,7.7158,10.0229,8.9936l0.4926,0.1381c1.1879,0.3331,2.4263,0.4482,3.6553,0.3399l1.9099-0.1684
				c3.1551-0.2782,5.9834-2.0175,7.7004-4.679c2.9152-4.5189,7.6351-7.6915,13.1503-8.244
				C282.121,153.4657,290.6731,161.048,291.464,171.3743L291.464,171.3743z"/>
		</g>
	</g>
	<g>
		<circle fill="#C63450" cx="106.7989" cy="88.7574" r="12.5226"/>
		<circle fill="#C63450" cx="103.3336" cy="253.824" r="8.2713"/>
		<circle fill="#C63450" cx="255.1964" cy="267.4502" r="12.1831"/>
	</g>
	<g>
		<path fill="#EF7086" d="M198.8952,209.8837c-0.2843-0.321-0.2545-0.8117,0.0665-1.0959l1.4193-1.2567l-1.7533-1.9802
			c-5.0199,3.6293-11.0544,5.6048-17.2823,5.6055c-0.6092,0-1.2185-0.0189-1.8308-0.0558
			c-7.8907-0.4795-15.1212-4.002-20.3605-9.9189c-10.8158-12.2158-9.6767-30.9522,2.5375-41.768
			c5.9185-5.2409,13.5302-7.864,21.4099-7.3822c7.89,0.4795,15.1196,4.002,20.3581,9.9189
			c5.2393,5.9169,7.8609,13.5208,7.3822,21.4099c-0.4198,6.9053-3.1715,13.3058-7.819,18.3077l1.749,1.9753l1.6261-1.4397
			c0.321-0.2842,0.8117-0.2544,1.0959,0.0666l6.682,7.5466c6.5772-7.6837,10.5597-17.6545,10.5625-28.5618
			c0.0062-24.2862-19.6766-43.9792-43.9628-43.9854c-24.2862-0.0062-43.9791,19.6766-43.9853,43.9628
			c-0.0063,24.2863,19.6766,43.9792,43.9628,43.9854c9.239,0.0024,17.8088-2.8505,24.8873-7.7164L198.8952,209.8837z"/>
		<path fill="#EF7086" d="M182.5654,160.8553c-0.4308-0.026-0.8607-0.0393-1.2884-0.0393c-5.0522,0-9.9267,1.8521-13.7243,5.2149
			c-4.1498,3.675-6.6205,8.7452-6.9561,14.2761c-0.3364,5.5325,1.5022,10.8645,5.1756,15.0135
			c3.6742,4.1489,8.7444,6.6197,14.2762,6.9561c5.5293,0.3317,10.8638-1.5022,15.0135-5.1756
			c4.149-3.6742,6.6197-8.7444,6.9561-14.2761c0.3364-5.5325-1.5023-10.8645-5.1764-15.0135
			C193.1682,163.6617,188.0979,161.1918,182.5654,160.8553z"/>
	</g>
</g>
<g>
	<path fill="#1A1C1E" d="M406.8896,160.5352l-15.5928,3.207c-1.748-10.3467-10.6367-17.1953-22.2949-17.1953
		c-11.5117,0-19.0898,6.2656-19.0898,14.8633c0,6.8496,3.9346,10.4922,12.3867,12.2402l21.1299,4.5176
		c14.5723,3.2061,25.0635,11.3662,25.0635,26.667c0,18.3613-15.0088,29.873-37.4502,29.873
		c-20.6924,0-37.8877-10.0547-40.3643-28.998l16.6113-3.498c2.332,12.5322,12.0957,18.6523,25.21,18.6523
		c13.1152,0,20.5469-6.2656,20.5469-15.1543c0-7.4326-3.9346-10.9297-13.6973-12.9697l-21.2754-4.3711
		c-12.0957-2.7695-24.627-9.1807-24.627-26.5215c0-17.1953,14.1348-28.8535,35.8467-28.8535
		C389.1113,132.9941,403.3926,143.7773,406.8896,160.5352z"/>
	<path fill="#1A1C1E" d="M494.9072,200.1719h-58.5801c1.458,13.4063,11.2207,21.4209,21.8584,21.4209
		c8.0146,0,16.1758-2.3311,21.2754-12.5313l13.5527,2.9141c-5.9746,15.1553-18.7988,22.7324-34.8281,22.7324
		c-19.6719,0-36.8672-15.1553-36.8672-38.0332c0-23.0244,17.0488-38.3252,37.4502-38.3252
		c19.3809,0,35.4102,14.8643,36.1387,36.5762V200.1719z M436.7646,189.3887h42.5508c-2.332-11.8037-10.6377-17.6318-20.5469-17.6318
		C449.2969,171.7568,439.0967,177.7314,436.7646,189.3887z"/>
	<path fill="#1A1C1E" d="M568.9365,232.668l-27.3955-30.7471l-14.7178,15.8838v14.8633H511.668V120.4629h15.1553v76.9404
		l35.4102-37.0127h17.7783l-28.416,30.7471l36.4307,41.5303H568.9365z"/>
	<path fill="#1A1C1E" d="M674.0039,232.668h-16.1748L626.79,160.2441h16.4668l22.7324,54.3545l22.7324-54.3545h16.4668
		L674.0039,232.668z"/>
	<path fill="#1A1C1E" d="M736.957,138.6777c0,5.3916-4.0801,9.3262-9.6182,9.3262c-5.6826,0-9.7627-3.9346-9.7627-9.3262
		c0-5.1006,4.0801-9.4727,9.7627-9.4727C732.877,129.2051,736.957,133.5771,736.957,138.6777z M719.7617,232.668v-72.2773h15.1553
		v72.2773H719.7617z"/>
	<path fill="#1A1C1E" d="M806.7578,160.0986l-1.0195,14.5723c-1.166-0.1455-2.915-0.1455-4.2266-0.1455
		c-18.3604,0-27.3955,12.8232-27.3955,32.6416v25.501h-15.1553v-72.2773h15.1553v15.4463
		c5.8291-9.6182,15.0098-16.3213,27.541-16.3213C803.4063,159.5156,804.8633,159.5156,806.7578,160.0986z"/>
	<path fill="#1A1C1E" d="M887.4902,232.668h-15.1543v-8.8887c-5.8291,6.9941-14.2813,10.9287-24.9189,10.9287
		c-17.4863,0-28.998-12.5322-28.998-30.7471v-43.5703h15.1543v40.5098c0,11.8037,6.8496,19.8184,17.3408,19.8184
		c12.9697,0,21.4219-8.7432,21.4219-26.958v-33.3701h15.1543V232.668z"/>
	<path fill="#1A1C1E" d="M918.5332,210.0811c1.0195,8.5977,8.5977,12.2402,18.0693,12.2402c8.7432,0,14.2803-3.9336,14.2803-9.6172
		c0-4.3721-3.0596-7.1406-9.7627-8.5977l-15.7383-3.2061c-12.5322-2.7686-19.6719-9.4717-19.6719-19.6719
		c0-13.4063,11.2197-22.8789,28.5605-22.8789c16.6123,0,27.833,8.7441,30.4561,20.8389l-14.4258,3.0596
		c-1.166-6.9941-7.1406-11.8027-16.4668-11.8027c-8.8896,0-12.8232,4.3711-12.8232,9.4717c0,4.0801,2.3311,6.7031,8.7432,8.1602
		l17.1953,3.7891c11.6572,2.4766,18.7979,9.3262,18.7979,19.5264c0,15.1553-12.3867,23.3154-30.4561,23.3154
		c-16.1748,0-30.0186-6.8486-31.9131-21.4209L918.5332,210.0811z"/>
	<path fill="#1A1C1E" d="M1046.1875,259.918c-4.0801,1.749-8.0146,2.623-11.2207,2.623c-6.7031,0-12.9688-3.6436-12.9688-12.5322
		c0-5.8291,2.623-10.6377,10.3457-17.3408h-4.0801v-8.3057c-5.3916,5.9736-13.4063,10.3457-24.627,10.3457
		c-16.1748,0-26.958-9.3262-26.958-22.8779c0-13.5527,10.3457-22.8789,28.998-22.8789h22.5869v-2.1855
		c0-9.3262-6.2656-15.1553-15.4463-15.1553c-9.7637,0-16.0293,4.3721-17.6318,12.5322l-14.4268-3.0596
		c2.4775-13.5527,15.0098-22.7334,31.1846-22.7334c18.5068,0,30.7471,9.7637,30.7471,27.25v47.0684h0.291
		c-6.8486,7.5771-9.6172,10.3467-9.6172,14.5723c0,3.2061,1.749,4.8086,4.9541,4.8086c2.04,0,3.7891-0.583,6.9951-1.6025
		L1046.1875,259.918z M1028.2637,202.9404v-2.3311h-22.8779c-8.8887,0-14.1348,4.5176-14.1348,10.9287
		c0,6.5576,5.8291,10.9297,14.7178,10.9297C1018.0635,222.4678,1028.2637,214.0156,1028.2637,202.9404z"/>
</g>
</svg>
