<?xml version="1.0" standalone="no"?>
<!DOCTYPE svg PUBLIC "-//W3C//DTD SVG 20010904//EN"
 "http://www.w3.org/TR/2001/REC-SVG-20010904/DTD/svg10.dtd">
<svg version="1.0" xmlns="http://www.w3.org/2000/svg"
 width="1004.000000pt" height="1004.000000pt" viewBox="0 0 1004.000000 1004.000000"
 preserveAspectRatio="xMidYMid meet">
<metadata>
Created by potrace 1.11, written by Peter Selinger 2001-2013
</metadata>
<g transform="translate(0.000000,1004.000000) scale(0.100000,-0.100000)"
fill="#000000" stroke="none">
<path d="M3947 9454 c-1 -1 -25 -5 -52 -8 -60 -5 -184 -49 -237 -82 -21 -13
-40 -24 -43 -24 -19 0 -151 -131 -192 -191 -40 -58 -81 -151 -89 -200 -4 -21
-9 -37 -13 -35 -11 7 -4 -217 8 -264 13 -49 60 -169 73 -185 5 -5 25 -32 46
-59 52 -70 68 -84 173 -160 160 -116 237 -220 264 -357 3 -13 8 -37 11 -54 11
-55 10 -169 -2 -227 -6 -32 -9 -60 -6 -63 3 -3 1 -5 -4 -5 -5 0 -10 -9 -11
-20 -3 -34 -79 -154 -135 -209 -29 -29 -96 -78 -148 -109 -88 -51 -278 -177
-290 -191 -19 -24 -100 -77 -145 -96 -58 -23 -152 -26 -233 -5 -51 12 -142 58
-142 71 0 5 -5 9 -11 9 -12 0 -89 60 -129 100 -42 42 -66 82 -95 160 -56 148
-150 242 -293 294 -220 79 -475 -24 -579 -234 -42 -85 -47 -107 -47 -220 0
-101 14 -154 62 -238 27 -47 103 -128 142 -151 36 -21 103 -54 115 -57 6 -1
32 -7 58 -13 27 -6 83 -11 125 -10 121 2 171 -17 282 -106 89 -71 124 -120
145 -205 2 -8 4 -15 5 -15 6 0 12 -60 13 -110 0 -85 -7 -119 -42 -210 -34 -89
-80 -236 -86 -275 -2 -14 -4 -25 -5 -25 -1 0 -4 -12 -14 -60 -1 -5 -5 -16 -9
-22 -5 -7 -6 -17 -3 -22 3 -5 -1 -29 -8 -55 -9 -28 -10 -43 -3 -39 5 3 7 2 4
-4 -24 -38 -35 -264 -27 -529 2 -71 -25 -131 -72 -159 -15 -8 -33 -21 -40 -28
-7 -7 -31 -24 -53 -39 -22 -15 -76 -52 -120 -82 -44 -31 -85 -56 -91 -56 -7 0
-14 -3 -16 -7 -3 -9 -184 -69 -238 -80 -23 -4 -152 -5 -180 0 -56 9 -97 20
-135 38 -60 27 -118 50 -135 54 -8 2 -36 8 -63 14 -88 20 -227 14 -327 -14
-52 -15 -151 -67 -205 -108 -124 -93 -213 -233 -252 -397 -2 -8 -6 -58 -8
-111 -3 -91 12 -204 34 -246 4 -10 18 -38 29 -63 33 -71 53 -101 107 -159 136
-146 292 -215 490 -215 163 0 310 51 423 148 69 59 152 159 152 183 0 7 4 13
9 13 5 0 13 10 17 23 9 31 60 104 109 156 120 129 341 212 505 188 14 -2 33 1
43 5 9 5 17 5 17 1 0 -4 46 -7 102 -7 111 2 149 -8 200 -51 16 -14 27 -25 23
-25 -4 0 0 -7 7 -15 23 -25 33 -39 47 -67 8 -15 22 -37 33 -47 10 -11 18 -24
18 -28 0 -5 11 -20 23 -34 13 -13 26 -30 28 -36 4 -11 62 -81 119 -143 92
-100 112 -120 185 -185 120 -108 135 -123 147 -152 15 -36 19 -120 8 -170 -5
-21 -11 -65 -15 -98 -3 -33 -8 -67 -10 -75 -3 -8 -6 -31 -9 -50 -8 -70 -29
-128 -101 -275 -40 -82 -76 -160 -80 -172 -3 -13 -11 -23 -16 -23 -5 0 -9 -9
-9 -20 0 -11 -4 -20 -8 -20 -4 0 -16 -13 -25 -29 -28 -47 -94 -109 -166 -155
-141 -92 -205 -184 -238 -346 -16 -77 7 -220 45 -278 8 -12 10 -22 6 -22 -5 0
-4 -4 1 -8 6 -4 23 -25 39 -46 17 -22 46 -55 65 -73 38 -36 156 -98 206 -109
53 -11 230 -6 230 6 0 1 19 6 48 13 33 7 141 84 182 129 44 49 86 116 91 146
1 8 6 21 10 30 18 43 21 111 12 297 -5 93 10 150 68 270 21 44 39 82 39 85 5
22 111 226 136 260 31 43 118 130 131 130 4 0 13 7 21 15 22 22 116 75 132 75
8 0 15 5 15 12 0 6 2 9 6 6 3 -3 27 3 54 13 92 35 195 40 499 26 115 -5 140
-9 185 -31 67 -33 88 -57 178 -201 103 -164 133 -229 153 -334 2 -9 4 -16 5
-16 1 0 4 -13 6 -30 3 -16 9 -42 13 -56 12 -35 11 -160 -1 -207 -15 -60 -20
-74 -55 -152 -23 -51 -52 -124 -53 -135 0 -3 0 -6 -1 -7 -3 -11 -11 -92 -12
-128 -1 -59 10 -142 24 -177 31 -78 55 -129 66 -141 7 -7 13 -18 13 -23 0 -5
31 -40 69 -77 67 -67 197 -144 261 -157 14 -2 41 -8 60 -13 47 -11 204 -6 229
7 11 6 24 10 28 10 9 -2 30 5 93 34 185 84 317 271 335 474 2 24 6 47 10 53 3
5 3 10 -2 10 -4 0 -8 17 -9 37 0 33 -8 88 -14 103 -1 3 -2 8 -1 13 1 4 -6 24
-16 45 -9 20 -17 40 -17 43 -1 3 -18 33 -38 66 -46 74 -91 120 -180 185 -86
63 -135 119 -178 204 -19 38 -35 74 -36 79 -1 6 -11 46 -22 90 -12 44 -24 94
-27 110 -9 40 -9 162 -1 205 4 19 8 42 10 50 11 66 86 240 107 248 5 2 9 9 9
15 1 26 140 163 220 217 21 14 100 73 161 120 15 11 37 31 50 43 111 108 343
156 460 96 58 -29 220 -140 241 -164 10 -11 27 -40 39 -65 12 -25 32 -67 45
-95 27 -58 44 -81 99 -136 49 -50 184 -117 248 -124 27 -2 53 -7 58 -10 5 -4
9 -2 9 4 0 10 18 10 36 -2 6 -3 14 -3 18 0 4 4 19 8 34 10 87 9 204 70 265
138 59 67 109 162 124 235 14 70 6 193 -15 245 -51 122 -97 182 -187 244 -42
29 -75 45 -87 43 -5 -1 -8 3 -8 10 0 6 -3 9 -6 5 -3 -3 -27 1 -52 8 -32 10
-83 13 -167 11 -105 -4 -128 -1 -166 16 -24 10 -45 19 -47 18 -1 0 -8 4 -15
10 -53 43 -76 60 -82 60 -4 0 -27 19 -50 43 -115 116 -142 286 -78 492 17 55
37 125 43 155 7 30 15 62 18 70 3 8 7 23 9 34 9 49 83 171 139 231 81 87 208
157 306 170 87 12 114 12 173 -2 33 -7 66 -14 73 -15 6 -1 12 -5 12 -10 0 -4
3 -7 8 -6 18 5 77 -38 149 -110 43 -43 96 -91 118 -108 22 -16 43 -33 47 -39
4 -5 8 -6 8 -2 0 4 19 -3 43 -16 86 -48 179 -70 297 -71 129 0 240 28 333 85
26 16 50 29 53 29 20 0 186 172 209 216 11 22 23 41 26 44 5 4 25 46 49 105
32 76 64 281 50 315 -1 3 -3 21 -5 40 -1 19 -3 35 -4 35 -1 0 -4 19 -6 42 -3
23 -15 70 -28 105 -125 344 -457 539 -793 467 -45 -10 -99 -25 -120 -35 -21
-9 -42 -16 -46 -16 -5 1 -8 -2 -8 -7 0 -5 -10 -13 -22 -17 -31 -9 -116 -71
-155 -114 -70 -75 -82 -91 -99 -120 -10 -16 -22 -30 -26 -30 -4 0 -8 -5 -8
-10 0 -11 -76 -83 -94 -89 -6 -2 -18 -10 -28 -18 -9 -8 -22 -16 -30 -17 -7 -1
-33 -8 -58 -15 -91 -26 -218 -29 -299 -6 -70 20 -191 78 -212 102 -8 10 -27
27 -43 38 -41 30 -106 119 -148 203 -21 42 -38 79 -38 82 0 6 -83 162 -128
243 -51 89 -89 290 -59 309 8 5 9 8 1 8 -16 0 11 111 43 174 32 63 60 101 143
190 169 181 204 206 351 249 46 14 107 37 136 51 47 24 125 92 163 141 16 20
58 106 57 115 0 3 5 15 12 28 19 36 23 167 6 239 -17 73 -56 155 -90 189 -13
13 -22 24 -19 24 19 0 -101 88 -151 110 -82 38 -93 41 -179 45 -103 6 -230
-30 -301 -85 -37 -28 -111 -110 -126 -137 -8 -16 -17 -30 -20 -33 -11 -8 -46
-131 -53 -184 -4 -27 -13 -64 -21 -83 -8 -18 -13 -35 -12 -37 1 -2 -6 -13 -16
-23 -9 -11 -14 -23 -10 -26 3 -4 1 -7 -5 -7 -6 0 -18 -12 -26 -27 -8 -16 -49
-64 -91 -108 -42 -44 -92 -97 -111 -118 -19 -20 -34 -35 -34 -32 0 3 -9 -3
-19 -12 -31 -28 -44 -36 -101 -65 -121 -59 -216 -101 -230 -102 -8 -1 -58 21
-110 48 -145 76 -183 94 -289 135 -89 36 -275 95 -332 105 -13 3 -25 5 -26 7
-5 3 -15 5 -73 13 -30 5 -64 10 -75 13 -40 9 -194 24 -298 28 -99 3 -113 9
-133 48 -9 16 -20 35 -26 41 -33 39 -159 260 -164 289 -1 4 -2 8 -4 10 -8 9
-27 151 -24 177 1 14 5 45 8 70 5 51 42 157 62 181 8 8 14 20 14 25 0 5 13 25
28 44 48 59 97 146 107 190 1 3 7 25 14 50 7 25 15 55 17 67 4 23 8 154 4 163
-2 7 -7 30 -14 73 -9 55 -74 207 -88 207 -5 0 -8 4 -8 10 0 25 -99 125 -182
183 -38 26 -70 47 -73 47 -3 0 -20 7 -37 14 -43 19 -71 29 -83 32 -5 1 -12 3
-15 4 -42 16 -261 35 -273 24z"/>
<path d="M1684 9320 c-3 -3 -9 -5 -12 -6 -47 -6 -146 -54 -191 -93 -13 -11
-26 -21 -30 -23 -13 -6 -79 -94 -103 -138 -133 -246 -21 -570 237 -685 103
-46 214 -56 320 -30 33 9 65 17 70 18 6 1 28 13 48 25 21 12 40 22 43 22 14 0
144 130 144 144 0 5 6 17 14 25 25 28 63 155 65 215 1 33 2 62 3 65 0 3 -1 8
-2 11 -1 3 -3 19 -4 35 -7 64 -56 184 -90 218 -10 9 -15 17 -13 17 9 0 -57 64
-93 91 -90 67 -191 98 -316 96 -46 -1 -87 -4 -90 -7z"/>
<path d="M1583 2550 c-54 -11 -109 -41 -154 -82 -166 -154 -129 -429 72 -533
59 -31 177 -52 204 -36 6 3 20 7 33 9 33 4 111 50 147 86 160 159 116 431 -84
528 -26 12 -53 24 -61 26 -41 8 -119 9 -157 2z"/>
<path d="M7590 2148 c-119 -40 -205 -103 -267 -198 -53 -83 -71 -134 -79 -235
-17 -213 121 -424 321 -491 45 -16 150 -30 195 -27 77 6 170 35 235 76 38 23
133 126 157 170 22 38 29 56 43 110 2 4 3 8 5 10 6 8 11 52 11 122 2 120 -43
238 -123 325 -40 43 -117 100 -135 100 -7 0 -13 5 -13 10 0 6 -9 10 -19 10
-11 0 -23 5 -26 11 -4 6 -13 8 -20 5 -7 -2 -16 -2 -19 2 -23 23 -198 23 -266
0z"/>
</g>
</svg>
