<svg width="251" height="238" xmlns="http://www.w3.org/2000/svg">

 <g>
  <title>background</title>
  <rect fill="none" id="canvas_background" height="240" width="253" y="-1" x="-1"/>
 </g>
 <g>
  <title>Layer 1</title>
  <g id="svg_1">
   <g id="XMLID_107_">
    <g id="svg_2">
     <path id="svg_3" d="m229.463861,106.3743c0.7955,10.3264 -6.4713,19.4918 -16.225,20.4678c-5.752,0.5751 -11.0805,-1.8274 -14.6502,-6.01c-2.1754,-2.5488 -5.4042,-3.9467 -8.7423,-3.6535l-0.939,0.0825c-1.23,0.1081 -2.4301,0.4382 -3.5423,0.9745l-0.1094,0.0528c-4.2534,2.0508 -7.4462,5.8895 -8.4438,10.5049c-0.4684,2.1671 -1.0556,4.2901 -1.7537,6.3631c-1.0415,3.0926 -0.6651,6.4867 0.9271,9.3352l0.1077,0.1927c0.5089,0.9104 1.2254,1.6879 2.0913,2.2692l2.7797,1.8662c1.3728,0.9216 3.0468,1.3866 4.6741,1.0932c2.9341,-0.5289 6.0688,0.0353 8.7414,1.8289c6.0964,4.094 7.2003,12.8489 1.7379,18.3528c-3.3947,3.4205 -8.7081,4.406 -13.1136,2.4528c-3.2999,-1.463 -5.5315,-4.1177 -6.5419,-7.1459c-0.4716,-1.4133 -1.3086,-2.6759 -2.5458,-3.5061l-3.9749,-2.667c-0.8649,-0.5803 -1.8544,-0.9486 -2.8882,-1.0751l0,0c-3.3146,-0.4055 -6.6815,0.5524 -9.1933,2.7528c-1.8695,1.6378 -3.8427,3.1603 -5.9076,4.5565c-4.9697,3.3603 -8.1806,8.7577 -8.5574,14.7449l0,0c-0.0896,1.4233 0.0421,2.8519 0.3903,4.2348l0.8111,3.2212c0.818,3.2489 2.7212,6.1922 5.5464,7.993c3.07,1.9568 5.4277,5.0444 6.3866,8.8517c2.0271,8.0585 -2.9803,16.2325 -11.1425,18.0476c-7.364,1.6395 -14.9159,-2.6553 -17.2543,-9.83c-1.3002,-4.0006 -0.8174,-8.0974 0.9684,-11.4902c1.5255,-2.8983 2.1045,-6.1998 1.3057,-9.3762l-0.9572,-3.8063c-0.3482,-1.3846 -0.9092,-2.7066 -1.6629,-3.9191l-3.3054,-5.3168c-1.2317,-1.9812 -3.3989,-3.1861 -5.7318,-3.1867l0,0c-2.0438,-0.0005 -4.0645,-0.1063 -6.0566,-0.3104c-6.0164,-0.6166 -11.9812,1.5291 -16.1423,5.918l0,0c-0.9096,0.9594 -1.6651,2.054 -2.2395,3.2449l-3.6579,7.5831c-1.1154,2.3124 -1.6229,4.9258 -1.1336,7.4461c0.4716,2.4291 0.1929,5.0255 -0.963,7.4273c-2.9687,6.1498 -10.5358,8.5919 -16.5818,5.1904c-5.1759,-2.9188 -7.4153,-9.3586 -5.1593,-14.8593c1.077,-2.6259 2.9625,-4.6417 5.2343,-5.9023c2.4138,-1.3393 4.2334,-3.5426 5.4323,-6.0291l3.5115,-7.2828c0.5735,-1.1895 0.9595,-2.4607 1.1442,-3.7683l1.0404,-7.3651c0.2394,-1.7225 -0.4185,-3.4587 -1.771,-4.5503c-5.3333,-4.3302 -9.9043,-9.5576 -13.4787,-15.4566c-0.8879,-1.4657 -2.484,-2.3545 -4.1975,-2.3684l-6.9619,-0.0691c-1.5657,-0.0155 -3.124,0.2156 -4.6177,0.6849l-0.5792,0.182c-4.0116,1.2605 -7.1711,4.2206 -9.0675,7.9736c-1.9534,3.8659 -5.4019,6.9692 -9.8602,8.3693c-9.3638,2.9441 -19.3816,-2.8101 -21.3387,-12.7154c-1.5072,-7.6285 2.6886,-15.4856 9.8582,-18.4961c4.709,-1.9773 9.708,-1.6412 13.8537,0.4076c3.3686,1.6648 7.2697,1.8848 10.8543,0.7581l1.8453,-0.58c1.4942,-0.4697 2.9051,-1.1718 4.1807,-2.0806l5.9897,-4.2673c1.1771,-0.8339 1.8043,-2.2316 1.6874,-3.6656c-0.1304,-1.5918 -0.1976,-3.1971 -0.1972,-4.8204c0.002,-7.7594 1.5046,-15.1729 4.2252,-21.9704c1.2126,-3.0296 1.0373,-6.4371 -0.3958,-9.3688l0,0c-0.5287,-1.0815 -1.3048,-2.0231 -2.2655,-2.7486l-2.2118,-1.6702c-1.4905,-1.1255 -3.3429,-1.6925 -5.2021,-1.5143c-2.8589,0.274 -5.8216,-0.4789 -8.2943,-2.3449c-5.8748,-4.4377 -6.4804,-13.2659 -0.6864,-18.4527c3.5901,-3.2138 8.9525,-3.8844 13.2332,-1.6725c3.1945,1.6506 5.2648,4.414 6.1007,7.4832c0.3747,1.3759 1.7263,3.1702 2.8644,4.0294c1.3413,1.0126 2.7252,2.0574 2.7252,2.0574c1.3475,1.0172 2.4596,1.5003 3.6462,1.7122l1.6969,0.3029c2.2109,0.3947 4.4777,-0.2074 6.2096,-1.6372c2.8833,-2.3804 5.9948,-4.4939 9.2955,-6.3029c3.7491,-2.0548 6.3934,-5.6625 7.0889,-9.8808l0.082,-0.4973c0.2897,-1.7572 0.2597,-3.4261 -0.0672,-5.054l-0.2856,-1.4216c-0.7397,-3.6824 -3.1178,-6.7386 -6.3182,-8.7044c-3.8248,-2.3493 -6.683,-6.0858 -7.6545,-10.6338c-1.9186,-8.9964 4.2658,-17.7563 13.8168,-19.562c9.5465,-1.8058 18.8431,4.0181 20.7617,13.0145c1.0193,4.7766 -0.2447,9.4845 -3.0848,13.1206c-2.4989,3.1993 -3.5423,7.2964 -2.742,11.2763l0,0c0.3269,1.6258 0.9455,3.1789 1.8258,4.5843l3.5502,5.6677c0.32,0.5096 0.8791,0.8164 1.4788,0.8166l0.009,0c11.1829,0.0029 21.6526,3.1169 30.593,8.5213c0.4914,0.2932 1.0957,0.334 1.6143,0.0906l5.5281,-2.5602c1.4001,-0.6484 2.6596,-1.5649 3.7072,-2.6977l4.0209,-4.3477c1.7309,-1.8716 2.9756,-4.2024 3.2542,-6.7365c0.2684,-2.4415 1.2917,-4.822 3.0882,-6.7626c4.7706,-5.1532 13.0341,-5.1359 17.7672,0.3254c3.5486,4.0945 3.8256,10.29 0.6527,14.682c-1.8361,2.5415 -4.4187,4.1169 -7.1797,4.7075c-2.4192,0.5175 -4.6788,1.6055 -6.3586,3.4217l-3.8897,4.2057c-1.5592,1.6859 -2.3671,3.0038 -2.9044,4.4483l0,0c-1.4428,3.8789 -1.0034,8.1854 1.1187,11.7385c1.3702,2.2941 2.5897,4.6881 3.6445,7.1684c1.8522,4.3551 5.466,7.7158 10.0229,8.9936l0.4926,0.1381c1.1879,0.3331 2.4263,0.4482 3.6553,0.3399l1.9099,-0.1684c3.1551,-0.2782 5.9834,-2.0175 7.7004,-4.679c2.9152,-4.5189 7.6351,-7.6915 13.1503,-8.244c9.7535,-0.9766 18.3056,6.6057 19.0965,16.932l0,0z" fill="#C63450"/>
    </g>
   </g>
   <g id="svg_4">
    <circle id="svg_5" r="12.5226" cy="23.7574" cx="44.798761" fill="#C63450"/>
    <circle id="svg_6" r="8.2713" cy="188.824" cx="41.333461" fill="#C63450"/>
    <circle id="svg_7" r="12.1831" cy="202.4502" cx="193.196261" fill="#C63450"/>
   </g>
  </g>
 </g>
</svg>