<svg xmlns="http://www.w3.org/2000/svg" xmlns:xlink="http://www.w3.org/1999/xlink" version="1.1" x="0px" y="0px" viewBox="0 0 203.372 258.4175" style="enable-background:new 0 0 203.372 206.734;" xml:space="preserve"><g><path d="M189.526,69.893c-3.518,1.637-5.604,5.079-5.671,8.682c-3.083,1.004-6.667,2.024-10.543,2.874   c-2.143-7.425-5.456-14.351-9.742-20.56c2.698-1.788,5.447-3.22,7.784-4.298c1.565,1.7,4.166,2.149,6.272,0.932   c2.435-1.407,3.281-4.499,1.89-6.907s-4.493-3.22-6.927-1.813c-1.747,1.009-2.658,2.887-2.529,4.757   c-2.628,1.122-5.992,2.337-9.635,3.115c-4.089-5.078-8.864-9.575-14.183-13.364c2.338-5.437,4.979-10.429,7.449-14.657   c-0.762-0.2-1.511-0.457-2.236-0.803c-1.643-0.785-3.03-1.89-4.139-3.2c-2.657,4.098-5.975,8.731-9.891,13.3   c-5.59-2.864-11.599-5.024-17.925-6.326c-0.232-4.429,0.282-8.81,0.893-12.212c2.29-0.309,4.148-2.182,4.358-4.606   c0.242-2.801-1.807-5.267-4.577-5.507c-2.771-0.24-5.213,1.837-5.455,4.638c-0.174,2.01,0.843,3.833,2.449,4.799   c-0.713,3.402-1.937,7.774-3.984,11.896c-2.652-0.3-5.344-0.47-8.076-0.47c-5.096,0-10.062,0.548-14.853,1.568   c-2.076-4.887-3.647-9.675-4.808-13.797c3.701-2.456,5.334-7.261,3.661-11.626c-1.933-5.045-7.545-7.584-12.534-5.672   c-4.989,1.912-7.466,7.551-5.532,12.596c1.389,3.624,4.677,5.943,8.267,6.26c1.039,4.152,2.05,9.168,2.624,14.56   c-6.675,2.305-12.897,5.572-18.502,9.644c-2.696-2.594-4.965-5.43-6.677-7.822c1.376-1.857,1.328-4.495-0.262-6.335   c-1.839-2.127-5.035-2.378-7.139-0.559c-2.104,1.819-2.318,5.017-0.479,7.145c1.32,1.526,3.335,2.068,5.147,1.591   c1.675,2.488,3.602,5.753,5.082,9.391c-4.678,3.986-8.832,8.564-12.346,13.625c-6.446-2.933-12.335-6.377-17.17-9.534   c-0.238,0.748-0.542,1.481-0.923,2.187c-0.853,1.579-2.019,2.922-3.397,3.979c4.841,3.493,10.435,8.007,15.679,13.382   c-2.419,5.094-4.255,10.518-5.41,16.192c-2.828-0.084-5.497-0.4-7.745-0.764c-0.348-2.285-2.254-4.11-4.68-4.277   c-2.805-0.194-5.235,1.898-5.427,4.672c-0.192,2.774,1.927,5.18,4.732,5.374c2.013,0.139,3.818-0.909,4.755-2.532   c2.233,0.428,4.886,1.069,7.618,2.012c-0.438,3.187-0.682,6.435-0.682,9.742c0,3.543,0.268,7.023,0.769,10.428   c-5.907,2.454-11.8,4.177-16.735,5.36c-2.309-3.794-7.047-5.614-11.473-4.114c-5.117,1.734-7.874,7.242-6.159,12.302   s7.253,7.756,12.37,6.021c3.675-1.246,6.122-4.441,6.579-8.016c4.907-1.026,10.999-1.965,17.465-2.193   c3.099,10.696,8.634,20.352,15.982,28.321c-2.148,3.657-4.624,6.917-6.785,9.476c-2.573-1.057-5.639-0.217-7.315,2.183   c-1.938,2.774-1.284,6.576,1.459,8.492c2.743,1.916,6.538,1.221,8.476-1.553c1.392-1.993,1.44-4.513,0.344-6.486   c2.139-2.389,4.935-5.19,8.199-7.748c8.46,7.714,18.791,13.409,30.234,16.326c-0.132,4.489-0.521,8.683-1.013,12.414   c0.696-0.115,1.405-0.185,2.127-0.185c0.644,0,1.295,0.048,1.936,0.142c1.564,0.23,3.016,0.74,4.334,1.452   c1.047-3.678,2.517-7.724,4.57-11.866c1.862,0.146,3.737,0.243,5.636,0.243c9.053,0,17.701-1.713,25.663-4.801   c2.98,2.981,5.427,6.34,7.205,9.11c-1.468,1.785-1.554,4.422-0.058,6.34c1.729,2.218,4.908,2.629,7.102,0.919   c2.193-1.71,2.569-4.894,0.84-7.111c-1.241-1.591-3.226-2.234-5.06-1.849c-1.562-2.596-3.343-5.995-4.64-9.748   c9.155-4.46,17.209-10.827,23.641-18.589c3.647,1.097,7.061,2.296,10.123,3.476c0.076-0.781,0.221-1.561,0.446-2.331   c0.505-1.724,1.373-3.276,2.501-4.592c-2.454-1.08-5.103-2.333-7.843-3.76c7.005-11.003,11.079-24.054,11.079-38.064   c0-4.134-0.373-8.178-1.051-12.118c3.81-1.805,7.505-3.282,10.78-4.456c2.707,3.521,7.614,4.817,11.852,2.845   c4.898-2.279,7.042-8.054,4.788-12.897C200.222,69.693,194.424,67.614,189.526,69.893z M131.908,114.529   c-1.116-1.406-0.882-3.45,0.524-4.566s3.45-0.882,4.566,0.524c1.116,1.406,0.882,3.45-0.524,4.566   C135.069,116.169,133.024,115.935,131.908,114.529z M111.271,98.683c1.406-1.116,3.45-0.882,4.566,0.524   c1.116,1.406,0.882,3.45-0.524,4.566c-1.406,1.116-3.45,0.882-4.566-0.524C109.631,101.843,109.866,99.799,111.271,98.683z    M111.819,119.707c-1.589-2-1.255-4.91,0.745-6.498c2-1.589,4.91-1.255,6.498,0.745c1.589,2,1.255,4.91-0.745,6.498   C116.317,122.041,113.407,121.707,111.819,119.707z M119.984,90.139c-2,1.589-4.91,1.255-6.498-0.745   c-1.589-2-1.255-4.91,0.745-6.498c2-1.589,4.909-1.255,6.498,0.745C122.318,85.641,121.984,88.55,119.984,90.139z M110.819,72.04   c-3.066-3.861-2.422-9.476,1.438-12.542c3.861-3.066,9.476-2.422,12.542,1.438c3.066,3.861,2.422,9.476-1.438,12.542   C119.5,76.545,113.885,75.901,110.819,72.04z M144.024,64.83c-1.289,0-2.333-1.045-2.333-2.333c0-1.289,1.045-2.333,2.333-2.333   c1.289,0,2.333,1.045,2.333,2.333C146.357,63.786,145.313,64.83,144.024,64.83z M133.369,98.683   c1.406-1.116,3.45-0.882,4.566,0.524s0.882,3.45-0.524,4.566c-1.406,1.116-3.45,0.882-4.566-0.524S131.964,99.799,133.369,98.683z    M132.591,81.008c1.009-0.801,2.477-0.633,3.278,0.376c0.802,1.009,0.633,2.477-0.376,3.278c-1.009,0.801-2.477,0.633-3.278-0.376   C131.414,83.277,131.582,81.81,132.591,81.008z M150.754,84.662c-1.009,0.801-2.477,0.633-3.278-0.376   c-0.801-1.009-0.633-2.477,0.376-3.278c1.009-0.801,2.477-0.633,3.278,0.376C151.932,82.393,151.764,83.861,150.754,84.662z    M153.607,69.247c-1.565,0-2.833-1.268-2.833-2.833s1.269-2.833,2.833-2.833c1.565,0,2.833,1.269,2.833,2.833   S155.172,69.247,153.607,69.247z M158.516,83.18c-0.973-1.225-0.769-3.008,0.457-3.981s3.008-0.769,3.981,0.457   c0.973,1.225,0.769,3.008-0.457,3.981C161.272,84.61,159.49,84.406,158.516,83.18z M144.024,50.497   c1.289,0,2.333,1.045,2.333,2.333c0,1.289-1.045,2.333-2.333,2.333c-1.289,0-2.333-1.045-2.333-2.333   C141.69,51.542,142.735,50.497,144.024,50.497z M121.857,41.414c0,1.565-1.269,2.833-2.833,2.833c-1.565,0-2.833-1.268-2.833-2.833   s1.269-2.833,2.833-2.833C120.589,38.58,121.857,39.849,121.857,41.414z M109.44,35.164c1.289,0,2.333,1.045,2.333,2.333   c0,1.289-1.045,2.333-2.333,2.333c-1.289,0-2.333-1.045-2.333-2.333C107.107,36.208,108.152,35.164,109.44,35.164z    M102.861,126.706c-3.861,3.066-9.476,2.422-12.542-1.439c-3.066-3.861-2.422-9.476,1.438-12.542   c3.861-3.066,9.476-2.422,12.542,1.439C107.365,118.024,106.721,123.639,102.861,126.706z M83.607,41.164   c0-1.795,1.455-3.25,3.25-3.25s3.25,1.455,3.25,3.25s-1.455,3.25-3.25,3.25S83.607,42.959,83.607,41.164z M88.232,55.664   c0-2.554,2.071-4.625,4.625-4.625s4.625,2.071,4.625,4.625s-2.071,4.625-4.625,4.625S88.232,58.218,88.232,55.664z M103.732,93.83   c0,2.554-2.071,4.625-4.625,4.625s-4.625-2.071-4.625-4.625c0-2.554,2.071-4.625,4.625-4.625S103.732,91.276,103.732,93.83z    M93.062,83.637c-1.225,0.973-3.008,0.769-3.981-0.457c-0.973-1.225-0.769-3.008,0.457-3.981c1.225-0.973,3.008-0.769,3.981,0.457   S94.287,82.664,93.062,83.637z M100.357,39.164c1.795,0,3.25,1.455,3.25,3.25s-1.455,3.25-3.25,3.25s-3.25-1.455-3.25-3.25   S98.562,39.164,100.357,39.164z M79.107,46.164c1.795,0,3.25,1.455,3.25,3.25s-1.455,3.25-3.25,3.25s-3.25-1.455-3.25-3.25   S77.312,46.164,79.107,46.164z M64.684,58.462c0.801,1.009,0.633,2.477-0.376,3.278c-1.009,0.801-2.477,0.633-3.278-0.376   c-0.801-1.009-0.633-2.477,0.376-3.278C62.415,57.285,63.883,57.453,64.684,58.462z M55.747,122.744   c2-1.589,4.91-1.255,6.498,0.745c1.589,2,1.255,4.91-0.745,6.498c-2,1.589-4.91,1.255-6.498-0.745   C53.414,127.242,53.747,124.332,55.747,122.744z M62.996,109.963c1.406-1.116,3.45-0.882,4.566,0.524   c1.116,1.406,0.882,3.45-0.524,4.566s-3.45,0.882-4.566-0.524C61.356,113.124,61.591,111.079,62.996,109.963z M67.977,103.773   c-1.406,1.116-3.45,0.882-4.566-0.524c-1.116-1.406-0.882-3.45,0.524-4.566c1.406-1.116,3.45-0.882,4.566,0.524   C69.617,100.612,69.382,102.656,67.977,103.773z M66.434,81.384c0.801,1.009,0.633,2.477-0.376,3.278   c-1.009,0.801-2.477,0.633-3.278-0.376c-0.801-1.009-0.633-2.477,0.376-3.278C64.165,80.207,65.633,80.375,66.434,81.384z    M54.44,70.414c0,1.289-1.045,2.333-2.333,2.333c-1.289,0-2.333-1.045-2.333-2.333c0-1.289,1.045-2.333,2.333-2.333   C53.396,68.08,54.44,69.125,54.44,70.414z M45.878,103.773c-1.406,1.116-3.45,0.882-4.566-0.524   c-1.116-1.406-0.882-3.45,0.524-4.566c1.406-1.116,3.45-0.882,4.566,0.524S47.284,102.656,45.878,103.773z M75.283,91.266   c1.406-1.116,3.45-0.882,4.566,0.524c1.116,1.406,0.882,3.45-0.524,4.566c-1.406,1.116-3.45,0.882-4.566-0.524   S73.878,92.382,75.283,91.266z M76.05,111.727c-1.589-2-1.255-4.91,0.745-6.498c2-1.589,4.91-1.255,6.498,0.745   c1.589,2,1.255,4.91-0.745,6.498C80.548,114.061,77.639,113.727,76.05,111.727z M114.784,141.715   c-3.066-3.861-2.422-9.476,1.439-12.542c3.861-3.066,9.476-2.422,12.542,1.438c3.066,3.861,2.422,9.476-1.439,12.542   C123.465,146.22,117.85,145.576,114.784,141.715z M126.402,164.045c-1.761-0.346-2.908-2.055-2.562-3.816   c0.346-1.761,2.055-2.908,3.816-2.562c1.761,0.346,2.908,2.055,2.562,3.816C129.871,163.244,128.163,164.391,126.402,164.045z    M149.835,150.865c-0.302,1.535-1.791,2.535-3.327,2.233s-2.535-1.791-2.233-3.327s1.791-2.535,3.327-2.233   C149.137,147.841,150.137,149.33,149.835,150.865z M140.854,142.984c-0.249,1.264-1.475,2.088-2.74,1.839s-2.088-1.475-1.839-2.74   c0.249-1.265,1.475-2.088,2.74-1.839C140.279,140.493,141.102,141.72,140.854,142.984z M155.694,137.321   c-1.191,1.015-2.979,0.871-3.994-0.32c-1.015-1.191-0.871-2.98,0.32-3.994c1.191-1.015,2.98-0.871,3.994,0.32   C157.029,134.518,156.886,136.306,155.694,137.321z M155.568,124.4c0.981-0.836,2.454-0.717,3.289,0.264   c0.835,0.981,0.717,2.454-0.264,3.289c-0.981,0.836-2.454,0.717-3.289-0.264C154.469,126.708,154.587,125.235,155.568,124.4z    M168.87,115.94c-0.981,0.836-2.454,0.717-3.289-0.264c-0.835-0.981-0.717-2.454,0.264-3.289c0.981-0.836,2.454-0.717,3.289,0.264   C169.969,113.632,169.851,115.105,168.87,115.94z M158.319,101.476c1.116,1.406,0.882,3.45-0.524,4.566   c-1.406,1.116-3.45,0.882-4.566-0.524c-1.116-1.406-0.882-3.45,0.524-4.566C155.158,99.836,157.202,100.07,158.319,101.476z"/><path d="M152.489,25.686c1.375,0.656,2.84,0.989,4.354,0.989c3.951,0,7.614-2.325,9.333-5.925   c2.46-5.151,0.322-11.318-4.766-13.748c-1.375-0.656-2.84-0.989-4.354-0.989c-3.951,0-7.614,2.325-9.333,5.925   C145.264,17.089,147.401,23.257,152.489,25.686z"/><path d="M173.547,156.039c1.333,2.406,3.53,4.159,6.187,4.938c0.964,0.282,1.955,0.425,2.948,0.425   c4.542,0,8.598-3.014,9.861-7.328c1.583-5.411-1.585-11.118-7.063-12.723c-0.964-0.282-1.955-0.425-2.948-0.425   c-4.542,0-8.597,3.014-9.86,7.328C171.905,150.873,172.216,153.638,173.547,156.039z"/><path d="M90.217,184.709c-0.525-0.077-1.059-0.116-1.586-0.116c-5.387,0-10.049,4.075-10.844,9.48   c-0.888,6.04,3.244,11.668,9.21,12.545c0.525,0.077,1.06,0.116,1.586,0.116c5.388,0,10.05-4.075,10.844-9.48   C100.315,191.214,96.184,185.587,90.217,184.709z"/><path d="M12.583,56.319c1.525,0.824,3.239,1.26,4.956,1.26c3.78,0,7.233-2.045,9.012-5.336c1.297-2.4,1.57-5.169,0.771-7.796   c-0.802-2.631-2.584-4.805-5.02-6.12c-1.525-0.824-3.239-1.26-4.957-1.26c-3.78,0-7.233,2.044-9.011,5.335   C5.654,47.362,7.561,53.606,12.583,56.319z"/></g></svg>